<svg width="130" height="40" viewBox="0 0 130 40" fill="none" xmlns="http://www.w3.org/2000/svg">
<path fill-rule="evenodd" clip-rule="evenodd" d="M8 0C3.58172 0 0 3.58172 0 8V32C0 33.077 0.212818 34.1043 0.598694 35.0421L13.75 14L20 4L39.4013 35.0421C39.7872 34.1043 40 33.077 40 32V8C40 3.58172 36.4183 0 32 0H8ZM36.7887 38.4091L20 11.5472L16.1085 17.7736L30 40H32C33.7959 40 35.4536 39.4082 36.7887 38.4091ZM25.283 40L13.75 21.5472L3.21132 38.4091C4.54643 39.4082 6.20411 40 8 40H25.283Z" fill="#FF3868"/>
<path fill-rule="evenodd" clip-rule="evenodd" d="M77 4H53C50.7909 4 49 5.79086 49 8V32C49 34.2091 50.7909 36 53 36H77C79.2091 36 81 34.2091 81 32V8C81 5.79086 79.2091 4 77 4ZM53 0C48.5817 0 45 3.58172 45 8V32C45 36.4183 48.5817 40 53 40H77C81.4183 40 85 36.4183 85 32V8C85 3.58172 81.4183 0 77 0H53Z" fill="#FF3868"/>
<path d="M63 40H67V19H63V40Z" fill="#FF3868"/>
<path fill-rule="evenodd" clip-rule="evenodd" d="M65 24L78.0875 3.06C78.9201 1.7279 77.9624 0 76.3915 0H53.6085C52.0376 0 51.0799 1.7279 51.9125 3.06L65 24ZM65 16.4528L72.783 4H57.217L65 16.4528Z" fill="#FF3868"/>
<path fill-rule="evenodd" clip-rule="evenodd" d="M98 0C93.5817 0 90 3.58172 90 8V32C90 33.077 90.2128 34.1043 90.5987 35.0421L110 4L129.401 35.0421C129.787 34.1043 130 33.077 130 32V8C130 3.58172 126.418 0 122 0H98ZM126.789 38.4091L110 11.5472L93.2113 38.4091C94.5464 39.4082 96.2041 40 98 40H122C123.796 40 125.454 39.4082 126.789 38.4091ZM110 28C112.209 28 114 26.2091 114 24C114 21.7909 112.209 20 110 20C107.791 20 106 21.7909 106 24C106 26.2091 107.791 28 110 28Z" fill="#454545"/>
</svg>
