<svg width="40" height="40" viewBox="0 0 40 40" fill="none" xmlns="http://www.w3.org/2000/svg">
<mask id="mask0" mask-type="alpha" maskUnits="userSpaceOnUse" x="0" y="0" width="40" height="40">
<path d="M0 8C0 3.58172 3.58172 0 8 0H32C36.4183 0 40 3.58172 40 8V32C40 36.4183 36.4183 40 32 40H8C3.58172 40 0 36.4183 0 32V8Z" fill="#C4C4C4"/>
</mask>
<g mask="url(#mask0)">
<path fill-rule="evenodd" clip-rule="evenodd" d="M40 0H0V36L20 4L40 36V0ZM37.783 40L20 11.5472L2.21699 40H37.783ZM20 28C22.2091 28 24 26.2091 24 24C24 21.7909 22.2091 20 20 20C17.7909 20 16 21.7909 16 24C16 26.2091 17.7909 28 20 28Z" fill="#454545"/>
<path d="M40 0H0V36L20 4L40 36V0Z" fill="#FF3868"/>
<path d="M25.283 40L13.75 21.5472L2.21699 40H25.283Z" fill="#FF3868"/>
</g>
</svg>
